<?xml version="1.0" encoding="utf-8"?>
<!-- Generator: Adobe Illustrator 24.0.3, SVG Export Plug-In . SVG Version: 6.00 Build 0)  -->
<svg version="1.1" id="Layer_1" xmlns="http://www.w3.org/2000/svg" xmlns:xlink="http://www.w3.org/1999/xlink" x="0px" y="0px"
	 viewBox="0 0 35 35" style="enable-background: new 0 0 35 35;" xml:space="preserve">
  <path class="st0" d="M3.08,7.94h4.74l0.42,2.51h0.14c1.61-1.62,3.36-2.99,5.94-2.99c2.76,0,4.42,1.19,5.41,3.3
    c1.72-1.8,3.56-3.3,6.15-3.3c4.23,0,6.13,3.01,6.13,7.91v12.17H26.2V16.11c0-2.82-0.77-3.7-2.42-3.7c-0.99,0-2.1,0.61-3.34,1.9
  v13.22h-5.81V16.11c0-2.82-0.77-3.7-2.42-3.7c-0.97,0-2.1,0.61-3.34,1.9v13.22H3.08V7.94z"
  fill="#2C4E56"/>
</svg>
